# xmcd
#
# Track frame offsets: 
#        150
#        38383
#        79091
#        108778
#        144511
#        182171
#        210955
#        245560
#        277808
#        302187
#
# Disc length: 4540 seconds
#
# Revision: 17
# Processed by: cddbd v1.5.2PL0 Copyright (c) Steve Scherf et al.
# Submitted via: ExactAudioCopyFreeDBPlugin 1.0
#
DISCID=7911ba0a
DTITLE=Andreas Fröhlich - Eragon [CD05)
DYEAR=2005
DGENRE=Hörbuch
TTITLE0=Therinsford (Teil 3)
TTITLE1=Therinsford (Teil 4)
TTITLE2=Donner und Blitz (Teil 1)
TTITLE3=Donner und Blitz (Teil 2)
TTITLE4=Offenbarung in Yazuac (Teil 1)
TTITLE5=Offenbarung in Yazuac (Teil 2)
TTITLE6=Warnungen (Teil 1)
TTITLE7=Warnungen (Teil 2)
TTITLE8=Warnungen (Teil 3)
TTITLE9=Magie - Die einfachste Sache der Welt (Teil 1)
EXTD=
EXTT0=
EXTT1=
EXTT2=
EXTT3=
EXTT4=
EXTT5=
EXTT6=
EXTT7=
EXTT8=
EXTT9=
PLAYORDER=
